<?xml version="1.0" encoding="UTF-8" standalone="no"?>
<svg
   width="12.75"
   height="10.537205"
   viewBox="0 0 12.75 10.537205"
   fill="none"
   version="1.1"
   id="svg2"
   sodipodi:docname="arrow-right.svg"
   inkscape:version="1.3.2 (091e20e, 2023-11-25, custom)"
   inkscape:export-filename="arrow-right.svg"
   inkscape:export-xdpi="96"
   inkscape:export-ydpi="96"
   xmlns:inkscape="http://www.inkscape.org/namespaces/inkscape"
   xmlns:sodipodi="http://sodipodi.sourceforge.net/DTD/sodipodi-0.dtd"
   xmlns="http://www.w3.org/2000/svg"
   xmlns:svg="http://www.w3.org/2000/svg">
  <defs
     id="defs2">
    <inkscape:path-effect
       effect="fill_between_many"
       method="originald"
       linkedpaths="#path2,0,1|#path1,0,1"
       id="path-effect2"
       is_visible="true"
       lpeversion="0"
       join="true"
       close="true"
       autoreverse="true" />
    <inkscape:path-effect
       effect="fill_between_many"
       method="originald"
       linkedpaths="#path2,0,1"
       id="path-effect5"
       is_visible="true"
       lpeversion="0"
       join="true"
       close="true"
       autoreverse="true" />
  </defs>
  <sodipodi:namedview
     id="namedview2"
     pagecolor="#ffffff"
     bordercolor="#000000"
     borderopacity="0.25"
     inkscape:showpageshadow="2"
     inkscape:pageopacity="0.0"
     inkscape:pagecheckerboard="0"
     inkscape:deskcolor="#d1d1d1"
     inkscape:zoom="30.454197"
     inkscape:cx="4.2194513"
     inkscape:cy="5.2373734"
     inkscape:window-width="1920"
     inkscape:window-height="1009"
     inkscape:window-x="-8"
     inkscape:window-y="-8"
     inkscape:window-maximized="1"
     inkscape:current-layer="svg2"
     showguides="false" />
  <path
     id="path2"
     style="color:#000000;fill:#000000;stroke-linecap:round;stroke-linejoin:round;-inkscape-stroke:none"
     d="m 47.496094,41.28125 a 0.75,0.75 0 0 0 -0.44336,0.363281 0.75,0.75 0 0 0 0.302735,1.015625 c 0,0 1.090591,0.589386 2.167968,1.416016 0.538689,0.413315 1.067985,0.886118 1.435547,1.335937 0.367563,0.44982 0.541016,0.8614 0.541016,1.105469 0,0.244643 -0.173438,0.655384 -0.541016,1.105469 -0.367577,0.450085 -0.896864,0.922443 -1.435547,1.335937 -1.077364,0.826989 -2.167968,1.417969 -2.167968,1.417969 a 0.75,0.75 0 0 0 -0.302735,1.015625 0.75,0.75 0 0 0 1.015625,0.304688 c 0,0 1.177757,-0.634319 2.369141,-1.548829 0.595692,-0.457254 1.200391,-0.984508 1.683594,-1.576171 C 52.604297,47.980602 53,47.309434 53,46.517578 53,45.725899 52.604312,45.054248 52.121094,44.462891 51.637876,43.871533 51.033185,43.343765 50.4375,42.886719 49.24613,41.972626 48.068359,41.339844 48.068359,41.339844 a 0.75,0.75 0 0 0 -0.572265,-0.05859 z M 41,45.767578 a 0.75,0.75 0 0 0 -0.75,0.75 0.75,0.75 0 0 0 0.75,0.75 h 11.25 a 0.75,0.75 0 0 0 0.75,-0.75 0.75,0.75 0 0 0 -0.75,-0.75 z M 52.25,46.5183 H 41"
     transform="translate(-40.25,-41.249601)" />
</svg>
