<?xml version="1.0" encoding="UTF-8" standalone="no"?>
<svg
   width="17.651726"
   height="17.532715"
   viewBox="0 0 17.651726 17.532715"
   fill="none"
   version="1.1"
   id="svg3"
   sodipodi:docname="Calling.svg"
   inkscape:version="1.3.2 (091e20e, 2023-11-25, custom)"
   xmlns:inkscape="http://www.inkscape.org/namespaces/inkscape"
   xmlns:sodipodi="http://sodipodi.sourceforge.net/DTD/sodipodi-0.dtd"
   xmlns="http://www.w3.org/2000/svg"
   xmlns:svg="http://www.w3.org/2000/svg">
  <defs
     id="defs3" />
  <sodipodi:namedview
     id="namedview3"
     pagecolor="#ffffff"
     bordercolor="#000000"
     borderopacity="0.25"
     inkscape:showpageshadow="2"
     inkscape:pageopacity="0.0"
     inkscape:pagecheckerboard="0"
     inkscape:deskcolor="#d1d1d1"
     inkscape:zoom="42.789474"
     inkscape:cx="8.5651907"
     inkscape:cy="8.9624846"
     inkscape:window-width="1920"
     inkscape:window-height="1009"
     inkscape:window-x="-8"
     inkscape:window-y="-8"
     inkscape:window-maximized="1"
     inkscape:current-layer="svg3" />
  <path
     style="color:#000000;fill:#46a358;stroke-linecap:round;stroke-linejoin:round;-inkscape-stroke:none"
     d="m 11.117823,0.00458084 a 0.75,0.75 0 0 0 -0.828125,0.6621094 0.75,0.75 0 0 0 0.662109,0.82812496 c 2.739969,0.3042732 4.897155,2.4592119 5.205078,5.1992187 a 0.75,0.75 0 0 0 0.830078,0.6601563 0.75,0.75 0 0 0 0.660157,-0.828125 C 17.261843,3.0977381 14.546247,0.38530694 11.117823,0.00458084 Z"
     id="path1" />
  <path
     style="color:#000000;fill:#46a358;stroke-linecap:round;stroke-linejoin:round;-inkscape-stroke:none"
     d="m 11.17837,2.9655183 a 0.75,0.75 0 0 0 -0.878907,0.59375 0.75,0.75 0 0 0 0.59375,0.8789062 c 1.17781,0.2287708 2.092714,1.1458532 2.322266,2.3242188 a 0.75,0.75 0 0 0 0.880859,0.5917969 0.75,0.75 0 0 0 0.591797,-0.8789063 C 14.342688,4.7019925 12.952357,3.310087 11.17837,2.9655183 Z"
     id="path2" />
  <path
     style="color:#000000;clip-rule:evenodd;fill:#46a358;fill-rule:evenodd;stroke-linecap:round;stroke-linejoin:round;-inkscape-stroke:none"
     d="M 3.6764168,0.21551834 C 3.0231433,0.26335982 2.4670914,0.53623664 2.0201668,0.85028394 1.5732422,1.1643312 1.2249209,1.5270055 0.97329176,1.8229402 c -0.1258146,0.1479673 -0.2263466,0.2799284 -0.3007813,0.3828125 -0.055184,0.076276 -0.0828688,0.1185115 -0.1171875,0.1738281 -0.4225133,0.5941779 -0.81940003,1.758446 -0.328125,3.4199219 0.4923557,1.6651303 1.80717984,3.8439511 4.73437504,6.7714843 2.9276776,2.92755 5.106034,4.242039 6.771484,4.734375 1.661795,0.491256 2.825454,0.09514 3.419922,-0.328125 0.0559,-0.03459 0.09758,-0.06204 0.173828,-0.117187 0.102847,-0.07438 0.234889,-0.175016 0.382813,-0.300782 0.295847,-0.251531 0.658649,-0.599954 0.972656,-1.046875 0.314007,-0.44692 0.586943,-1.002926 0.634765,-1.656249 0.04782,-0.653324 -0.165774,-1.38013 -0.689453,-2.019532 a 0.750075,0.750075 0 0 0 -0.002,-0.002 C 15.530551,10.505332 14.699872,9.8351218 13.856057,9.5846118 13.012242,9.3341016 12.27713,9.6355418 11.80137,9.8658618 11.325609,10.096181 11.064578,10.234502 10.693948,10.188128 10.323365,10.1418 9.6917773,9.8653868 8.6803231,8.8541902 7.6690932,7.8427882 7.390775,7.2092782 7.3443856,6.8385652 7.2979961,6.4678521 7.4363683,6.2070209 7.6666512,5.7311433 7.896934,5.2552657 8.1985765,4.5202977 7.9479012,3.6764558 7.6972259,2.8326139 7.027457,2.0019005 5.6979012,0.90692454 a 0.750075,0.750075 0 0 0 -0.00195,0 C 5.056745,0.3832089 4.3296903,0.16767686 3.6764168,0.21551834 Z m 0.109375,1.49609376 c 0.2873897,-0.021047 0.5698085,0.036607 0.9589844,0.3554687 1.2202031,1.0055527 1.6584352,1.676279 1.765625,2.0371094 0.1072993,0.3611991 0.018122,0.535631 -0.1933594,0.9726562 -0.2114817,0.4370253 -0.5679429,1.0941034 -0.4609375,1.9492188 0.1070054,0.8551154 0.6314488,1.756256 1.7636719,2.8886716 1.1324536,1.1321662 2.0335941,1.6547292 2.8886718,1.7617192 0.855077,0.10699 1.510311,-0.249405 1.947265,-0.460937 0.436954,-0.211533 0.611544,-0.300566 0.972657,-0.19336 0.360915,0.107148 1.030718,0.544368 2.037109,1.765625 0.318921,0.389397 0.376515,0.671465 0.355469,0.958985 -0.02105,0.287519 -0.15672,0.602789 -0.367188,0.902343 -0.210467,0.299554 -0.486473,0.573416 -0.714843,0.767578 -0.114186,0.09708 -0.217292,0.175197 -0.291016,0.228516 -0.07372,0.05332 -0.165936,0.107216 -0.09375,0.06641 a 0.750075,0.750075 0 0 0 -0.06641,0.04297 c -0.255146,0.182488 -0.828197,0.495841 -2.128907,0.111328 C 10.858129,15.481397 8.8436866,14.331884 6.0221199,11.51044 3.2010049,8.6889993 2.0511831,6.6761488 1.6666512,5.3756745 1.2821192,4.0752003 1.5955685,3.502135 1.7779793,3.2467683 a 0.750075,0.750075 0 0 0 0.041016,-0.066406 c -0.03927,0.069161 0.014926,-0.021848 0.068359,-0.095703 C 1.9407869,3.0108039 2.0187164,2.9079031 2.1158699,2.7936433 2.3101769,2.5651237 2.5838572,2.2893176 2.8834481,2.0787996 3.1830389,1.8682815 3.4984021,1.7326586 3.7857918,1.7116121 Z"
     id="path3" />
</svg>
