<?xml version="1.0" encoding="UTF-8" standalone="no"?>
<svg
   width="14"
   height="16.5"
   viewBox="0 0 14 16.5"
   fill="none"
   version="1.1"
   id="svg2"
   sodipodi:docname="Location.svg"
   inkscape:version="1.3.2 (091e20e, 2023-11-25, custom)"
   xmlns:inkscape="http://www.inkscape.org/namespaces/inkscape"
   xmlns:sodipodi="http://sodipodi.sourceforge.net/DTD/sodipodi-0.dtd"
   xmlns="http://www.w3.org/2000/svg"
   xmlns:svg="http://www.w3.org/2000/svg">
  <defs
     id="defs2" />
  <sodipodi:namedview
     id="namedview2"
     pagecolor="#ffffff"
     bordercolor="#000000"
     borderopacity="0.25"
     inkscape:showpageshadow="2"
     inkscape:pageopacity="0.0"
     inkscape:pagecheckerboard="0"
     inkscape:deskcolor="#d1d1d1"
     inkscape:zoom="45.166667"
     inkscape:cx="7.0073801"
     inkscape:cy="8.2472325"
     inkscape:window-width="1920"
     inkscape:window-height="1009"
     inkscape:window-x="-8"
     inkscape:window-y="-8"
     inkscape:window-maximized="1"
     inkscape:current-layer="svg2" />
  <path
     style="color:#000000;clip-rule:evenodd;fill:#46a358;fill-rule:evenodd;stroke-linecap:round;stroke-linejoin:round;-inkscape-stroke:none"
     d="m 7.0078125,4.3417969 c -1.5556561,0 -2.8320313,1.2777776 -2.8320313,2.8339843 0,1.5556562 1.2763925,2.8320318 2.8320313,2.8320318 1.5561894,0 2.8339844,-1.2763756 2.8339844,-2.8320318 0,-1.5562067 -1.2777777,-2.8339843 -2.8339844,-2.8339843 z m 0,1.5 c 0.745911,0 1.3339844,0.5880734 1.3339844,1.3339843 0,0.7447616 -0.5880561,1.3320313 -1.3339844,1.3320313 -0.7447789,0 -1.3320313,-0.5872697 -1.3320313,-1.3320313 0,-0.7459109 0.5872697,-1.3339843 1.3320313,-1.3339843 z"
     id="path1" />
  <path
     style="color:#000000;clip-rule:evenodd;fill:#46a358;fill-rule:evenodd;stroke-linecap:round;stroke-linejoin:round;-inkscape-stroke:none"
     d="M 7,0 C 3.137307,0 0,3.1852063 0,7.0820312 0,9.529999 1.0305619,11.832045 2.3789063,13.552734 3.7272506,15.273424 5.3575988,16.5 7,16.5 c 1.6426636,0 3.272631,-1.224612 4.621094,-2.945312 C 12.969556,11.833987 14,9.529999 14,7.0820312 14,3.185089 10.862693,0 7,0 Z m 0,1.5 c 3.04132,0 5.5,2.4853605 5.5,5.5820312 0,2.0187282 -0.887767,4.0503538 -2.060547,5.5468748 C 9.2666729,14.125428 7.773174,15 7,15 6.2273837,15 4.7312868,14.125438 3.5585938,12.628906 2.3859007,11.132374 1.5,9.1007594 1.5,7.0820312 1.5,3.9852432 3.9586799,1.5 7,1.5 Z"
     id="path2"
     inkscape:label="path2" />
</svg>
