<?xml version="1.0" encoding="UTF-8" standalone="no"?>
<svg
   width="17.779448"
   height="16.9167"
   viewBox="0 0 17.779448 16.9167"
   fill="none"
   version="1.1"
   id="svg3"
   sodipodi:docname="login.svg"
   inkscape:version="1.3.2 (091e20e, 2023-11-25, custom)"
   xmlns:inkscape="http://www.inkscape.org/namespaces/inkscape"
   xmlns:sodipodi="http://sodipodi.sourceforge.net/DTD/sodipodi-0.dtd"
   xmlns="http://www.w3.org/2000/svg"
   xmlns:svg="http://www.w3.org/2000/svg">
  <defs
     id="defs3" />
  <sodipodi:namedview
     id="namedview3"
     pagecolor="#ffffff"
     bordercolor="#000000"
     borderopacity="0.25"
     inkscape:showpageshadow="2"
     inkscape:pageopacity="0.0"
     inkscape:pagecheckerboard="0"
     inkscape:deskcolor="#d1d1d1"
     inkscape:zoom="45.166667"
     inkscape:cx="8.8671587"
     inkscape:cy="8.4686347"
     inkscape:window-width="1920"
     inkscape:window-height="1009"
     inkscape:window-x="-8"
     inkscape:window-y="-8"
     inkscape:window-maximized="1"
     inkscape:current-layer="svg3" />
  <path
     style="color:#000000;fill:#000000;stroke-linecap:round;stroke-linejoin:round;-inkscape-stroke:none"
     d="m 6.9941406,7.8085937 a 0.75,0.75 0 0 0 -0.75,0.7500001 0.75,0.75 0 0 0 0.75,0.75 H 17.029297 a 0.75,0.75 0 0 0 0.75,-0.75 0.75,0.75 0 0 0 -0.75,-0.7500001 z"
     id="path1" />
  <path
     style="color:#000000;fill:#000000;stroke-linecap:round;stroke-linejoin:round;-inkscape-stroke:none"
     d="m 14.587891,5.3789062 a 0.75,0.75 0 0 0 -0.529297,0.2207032 0.75,0.75 0 0 0 0.002,1.0605468 l 1.90625,1.8984376 -1.90625,1.8984372 a 0.75,0.75 0 0 0 -0.002,1.060547 0.75,0.75 0 0 0 1.060547,0.002 l 2.439453,-2.4296872 a 0.750075,0.750075 0 0 0 0,-1.0625 L 15.119141,5.5976562 a 0.75,0.75 0 0 0 -0.53125,-0.21875 z"
     id="path2" />
  <path
     style="color:#000000;fill:#000000;stroke-linecap:round;stroke-linejoin:round;-inkscape-stroke:none"
     d="M 5.4902344,0.02929688 A 0.750075,0.750075 0 0 0 5.4609375,0.03125 C 4.7171002,0.07692712 3.8630029,0.15044586 3.0351563,0.41992188 2.2073096,0.68939789 1.3827159,1.1822996 0.85351563,2.0410156 a 0.750075,0.750075 0 0 0 -0.0195313,0.033203 C -0.13508973,3.8407274 0.05560687,5.7850042 0.00390625,7.3945312 a 0.750075,0.750075 0 0 0 0,0.039063 C 0.04543671,9.428924 -0.15920737,11.582288 0.375,13.753906 c 0.36370994,1.590825 1.7507356,2.641663 3.2402344,2.896485 1.9141434,0.369127 3.8787702,0.339803 5.765625,0.07031 1.4138746,-0.197615 2.9528826,-1.00083 3.4667966,-2.589844 0.243706,-0.663682 0.340932,-1.334414 0.400391,-1.960937 a 0.75,0.75 0 0 0 -0.675781,-0.816406 0.75,0.75 0 0 0 -0.816407,0.675781 c -0.05513,0.580918 -0.142217,1.126808 -0.320312,1.603516 a 0.750075,0.750075 0 0 0 -0.01172,0.0332 c -0.278619,0.870738 -1.238279,1.426679 -2.251953,1.568359 a 0.750075,0.750075 0 0 0 -0.00195,0 c -1.7615596,0.251754 -3.5664292,0.273591 -5.28125,-0.05859 a 0.750075,0.750075 0 0 0 -0.017578,-0.0039 C 2.9059507,15.008193 2.0416457,14.32314 1.8359375,13.417969 a 0.750075,0.750075 0 0 0 -0.00391,-0.01367 C 1.3771092,11.562735 1.5428038,9.5399621 1.5019531,7.4433594 v -0.00391 C 1.5570038,5.718159 1.4619433,4.0773702 2.1425781,2.8183594 2.4470537,2.3331821 2.8973561,2.0418724 3.5,1.8457031 4.1046605,1.6488774 4.8365405,1.5728631 5.5390625,1.5292969 7.3188459,1.4911452 9.0606784,1.4276003 10.458984,2.1113281 c 0.869987,0.4447052 1.21034,1.5890894 1.294922,2.7597656 A 0.75,0.75 0 0 0 12.556641,5.5644531 0.75,0.75 0 0 0 13.25,4.7617187 C 13.150226,3.380781 12.739949,1.5876086 11.136719,0.77148437 a 0.750075,0.750075 0 0 0 -0.0078,-0.003906 C 9.2688106,-0.14607441 7.2434617,-0.00812058 5.4902344,0.02929688 Z"
     id="path3" />
</svg>
