<?xml version="1.0" encoding="UTF-8" standalone="no"?>
<svg
   width="17.373047"
   height="16.695312"
   viewBox="0 0 17.373047 16.695312"
   fill="none"
   version="1.1"
   id="svg2"
   sodipodi:docname="Message.svg"
   inkscape:version="1.3.2 (091e20e, 2023-11-25, custom)"
   xmlns:inkscape="http://www.inkscape.org/namespaces/inkscape"
   xmlns:sodipodi="http://sodipodi.sourceforge.net/DTD/sodipodi-0.dtd"
   xmlns="http://www.w3.org/2000/svg"
   xmlns:svg="http://www.w3.org/2000/svg">
  <defs
     id="defs2" />
  <sodipodi:namedview
     id="namedview2"
     pagecolor="#ffffff"
     bordercolor="#000000"
     borderopacity="0.25"
     inkscape:showpageshadow="2"
     inkscape:pageopacity="0.0"
     inkscape:pagecheckerboard="0"
     inkscape:deskcolor="#d1d1d1"
     inkscape:zoom="45.166667"
     inkscape:cx="8.7121771"
     inkscape:cy="8.3800738"
     inkscape:window-width="1920"
     inkscape:window-height="1009"
     inkscape:window-x="-8"
     inkscape:window-y="-8"
     inkscape:window-maximized="1"
     inkscape:current-layer="svg2" />
  <path
     style="color:#000000;fill:#46a358;stroke-linecap:round;stroke-linejoin:round;-inkscape-stroke:none"
     d="m 13.259765,5.1425781 a 0.75,0.75 0 0 0 -0.507812,0.265625 c 0,0 -0.638483,0.7646315 -1.501953,1.5234375 -0.86347,0.7588061 -1.9866686,1.4179688 -2.5546875,1.4179688 -0.5674582,0 -1.6991408,-0.6605016 -2.5703126,-1.4199219 C 5.2538282,6.1702673 4.609375,5.40625 4.6093749,5.40625 A 0.75,0.75 0 0 0 3.5527343,5.3144531 0.75,0.75 0 0 0 3.4609375,6.3730469 c 0,0 0.7074279,0.8397087 1.6777343,1.6855469 0.9703064,0.8458381 2.1683808,1.7910151 3.5566408,1.7910161 1.3884884,0 2.5817164,-0.9465169 3.5449214,-1.7929692 0.963206,-0.8464524 1.664063,-1.6875 1.664063,-1.6875001 A 0.75,0.75 0 0 0 13.808597,5.3125 0.75,0.75 0 0 0 13.259768,5.1425781 Z"
     id="path1" />
  <path
     style="color:#000000;clip-rule:evenodd;fill:#46a358;fill-rule:evenodd;stroke-linecap:round;stroke-linejoin:round;-inkscape-stroke:none"
     d="M 8.6875001,0 C 5.6315539,0 3.4253502,0.47485308 1.96875,1.8691407 0.51214979,3.2634282 0,5.4114071 0,8.3476563 c 0,2.9358707 0.51218165,5.0821877 1.96875,6.4765627 1.4565683,1.394374 3.6627707,1.871094 6.7187501,1.871094 3.0559499,0 5.2621699,-0.476723 6.7187499,-1.871094 1.456579,-1.394371 1.966797,-3.540688 1.966797,-6.4765627 0,-2.9362527 -0.510186,-5.0842314 -1.966797,-6.4785156 C 13.949638,0.47485638 11.743417,0 8.6875001,0 Z m 0,1.5 c 2.8964069,0 4.6580719,0.4733542 5.6816399,1.453125 1.023569,0.9797709 1.503907,2.6323796 1.503907,5.3945313 0,2.7617497 -0.480306,4.4126947 -1.503907,5.3925787 -1.0236,0.979883 -2.785266,1.455078 -5.6816399,1.455078 -2.8964049,0 -4.658054,-0.475198 -5.6816407,-1.455078 C 1.9822728,12.760354 1.5,11.10941 1.5,8.3476563 1.5,5.5855011 1.9823046,3.9328926 3.0058594,2.953125 4.0294142,1.9733574 5.791062,1.5 8.6875001,1.5 Z"
     id="path2" />
</svg>
